<svg width="800px" height="800px" viewBox="0 0 600 600" fill="none" xmlns="http://www.w3.org/2000/svg">
<g clip-path="url(#clip0_1_18)">
<path d="M163.373 130.544H285.969V140.266H174.611V213.437H279.328V223.159H174.611V303.494H287.246V313.216H163.373V130.544ZM296.951 130.544H309.977L367.699 210.879L426.699 130.544L506.947 28.5L375.106 219.321L443.045 313.216H429.508L367.699 227.764L305.635 313.216H292.354L360.803 219.321L296.951 130.544ZM447.897 140.266V130.544H587.606V140.266H523.243V313.216H512.005V140.266H447.897ZM10 130.544H24.0475L217.754 419.751L137.704 313.216L21.7488 144.359L21.238 313.216H10V130.544ZM586.473 300.56C584.177 300.56 582.455 298.785 582.455 296.491C582.455 294.198 584.177 292.423 586.473 292.423C588.797 292.423 590.491 294.198 590.491 296.491C590.491 298.785 588.797 300.56 586.473 300.56ZM597.516 289.856H603.529C603.611 293.105 605.989 295.29 609.488 295.29C613.397 295.29 615.611 292.941 615.611 288.545V260.692H621.733V288.572C621.733 296.491 617.141 301.052 609.543 301.052C602.409 301.052 597.516 296.628 597.516 289.856ZM629.742 289.501H635.81C636.329 293.242 639.992 295.618 645.267 295.618C650.187 295.618 653.795 293.078 653.795 289.583C653.795 286.579 651.499 284.777 646.279 283.548L641.195 282.319C634.061 280.653 630.808 277.213 630.808 271.424C630.808 264.406 636.548 259.736 645.158 259.736C653.167 259.736 659.016 264.406 659.371 271.041H653.413C652.839 267.409 649.668 265.143 645.076 265.143C640.238 265.143 637.013 267.464 637.013 271.014C637.013 273.827 639.09 275.438 644.229 276.639L648.575 277.704C656.665 279.588 660 282.865 660 288.791C660 296.328 654.151 301.052 644.803 301.052C636.056 301.052 630.179 296.546 629.742 289.501Z" fill="white"/>
</g>
<defs>
<clipPath id="clip0_1_18">
<rect width="650" height="391.398" fill="white" transform="translate(10 28.5)"/>
</clipPath>
</defs>
</svg>
